<svg xmlns="http://www.w3.org/2000/svg" viewBox="0 0 66.42 77.14">
  <title>burner</title>
  <path d="M19.49,27.84c1-2.13,2.09-4.22,2.94-6.41A56.86,56.86,0,0,0,26.26,2.8c.06-1.33.41-1.64,1.67-1.11a20.23,20.23,0,0,1,3.86,2.09c9.19,6.64,16.06,15.1,20,25.83.58,1.62,1,3.3,1.48,5.06.19-.31.35-.59.53-.87,1.09-1.72,2.13-3.49,3.31-5.16a10.5,10.5,0,0,1,2.21-2.1,1.77,1.77,0,0,1,1.47-.28c.31.13.44.84.5,1.32.12.85,0,1.73.17,2.58a32.12,32.12,0,0,0,2.93,8.4A66.57,66.57,0,0,1,68,47.33c1.63,5.83.25,11.38-2.68,16.52-3.68,6.47-9.39,10.51-16.34,12.77a78.77,78.77,0,0,1-8.8,1.93,1.74,1.74,0,1,1-.69-3.41,17.1,17.1,0,0,0,6.58-3,11,11,0,0,0,3.64-12.5A36.87,36.87,0,0,1,48.4,56.1a22.52,22.52,0,0,1-.58-3.38c-.1-.89-.42-1.17-1.13-.62a20.3,20.3,0,0,0-2.25,2.2,14.46,14.46,0,0,0-1,1.39A22.65,22.65,0,0,0,40.74,47,23.35,23.35,0,0,0,36,40.92c-.79-.71-.9-.61-1.28.33a34.34,34.34,0,0,1-2.09,4.62c-1.32,2.26-2.82,4.41-4.32,6.72-.31-.86-.5-1.58-.82-2.24-.14-.3-.53-.5-.81-.74a6.33,6.33,0,0,0-.56.72c-1.18,2-2.34,4.05-3.52,6.06-1.84,3.15-2.65,6.46-1.49,10,1.51,4.68,5,7.18,9.54,8.49.3.09.62.14.93.22a1.73,1.73,0,0,1,1.43,2,1.77,1.77,0,0,1-2.16,1.43A72.44,72.44,0,0,1,23,76.84c-6.74-2.07-12.48-5.72-16.39-11.71A24.21,24.21,0,0,1,4.49,41.06c1.44-3.34,3.41-6.44,5.18-9.63S13.23,25.14,15,22c.59-1.05,1.15-1.15,2-.22a9.23,9.23,0,0,1,2,5l.15,1Z" transform="translate(-2.22 -1.45)"/>
</svg>
