<svg xmlns="http://www.w3.org/2000/svg" viewBox="0 0 41.29 67.98">
  <title>fuel</title>
  <g>
    <path d="M55.61,23.9V53.63H14.47V23.9ZM35.14,50.46c6.73,0,11.43-7.23,8.4-13A52.55,52.55,0,0,0,36,27a1.08,1.08,0,0,0-1.73.07,52.75,52.75,0,0,0-6.54,8.64A11.3,11.3,0,0,0,25.77,41,9.32,9.32,0,0,0,35.14,50.46Z" transform="translate(-14.47 -1.16)"/>
    <path d="M55.76,55.79a9.58,9.58,0,0,1-2,4.86,7.28,7.28,0,0,1-1.43,1.45,1.57,1.57,0,0,0-.72,1.54,5.19,5.19,0,0,1-5.11,5.49q-11.34,0-22.69,0A5.1,5.1,0,0,1,18.68,64a2.4,2.4,0,0,0-1-2.11,8.84,8.84,0,0,1-3.06-5.27c-.05-.26-.07-.53-.11-.84Z" transform="translate(-14.47 -1.16)"/>
    <path d="M14.52,21.67a9.16,9.16,0,0,1,3.53-6.83,10,10,0,0,1,7.43-2V3.26c-.6,0-1.2,0-1.81,0-.82,0-1.21-.37-1.2-1.06s.39-1,1.17-1h22.9c.77,0,1.14.36,1.15,1s-.37,1-1.14,1.06c-.61,0-1.22,0-1.87,0v9.57c3.65-.27,6.81.73,9.12,3.71a9.3,9.3,0,0,1,2,5.13ZM36.2,8.36v4.41h6.25V3.3H27.72v9.46H34V8.37H33.2c-.64,0-1.28,0-1.91,0a1,1,0,0,1-1.09-1,1,1,0,0,1,1.09-1c2.58,0,5.15,0,7.72,0a1.06,1.06,0,1,1-.14,2.11Z" transform="translate(-14.47 -1.16)"/>
    <path d="M35.08,29.14a45.53,45.53,0,0,1,6.58,9.57,6.25,6.25,0,0,1-.91,6.85,6.78,6.78,0,0,1-6.56,2.72,7,7,0,0,1-6.28-6.68,6.26,6.26,0,0,1,.54-2.71,32.28,32.28,0,0,1,4.72-7.4C33.76,30.72,34.4,30,35.08,29.14Z" transform="translate(-14.47 -1.16)"/>
  </g>
</svg>
