<svg xmlns="http://www.w3.org/2000/svg" viewBox="0 0 132 58.57">
  <title>reformer</title>
  <path d="M91.14,58.57H40.86A19.88,19.88,0,0,1,21,38.71V34.07H0v-2H23v6.64A17.88,17.88,0,0,0,40.86,56.57H91.14A17.88,17.88,0,0,0,109,38.71V31.43h23v2H111v5.28A19.88,19.88,0,0,1,91.14,58.57ZM23,19.86A17.88,17.88,0,0,1,40.86,2H91.14A17.88,17.88,0,0,1,109,19.86v7.28h23v-2H111V19.86A19.88,19.88,0,0,0,91.14,0H40.86A19.88,19.88,0,0,0,21,19.86v5.93H0v2H23ZM83.79,5.74V52.83H48.21V5.74H83.79ZM67.51,49.67l1-1.31-2.19-3-2.19,3L65.27,50l1,1.37ZM65.27,8.62,64.1,10.21l2.19,3,2.19-3-1-1.31L66.29,7.25Zm10.6,22.09V27.86l-1.14-1.55-2.19,3,2.19,3Zm0-5.95-.52.71.52.71Zm-9,4.53,2.19,3,2.19-3-2.19-3Zm1.57-3.82-2.19-3-2.19,3,2.19,3Zm-5,6.79,2.19-3-2.19-3-2.2,3Zm-7.35-2.34,1.72,2.34,2.19-3-2.19-3-1.72,2.34Zm1.1-4.45L56.13,24v3Zm-1.1,9.12,1.1-1.49-1.1-1.49Zm8-1.49,2.19,3,2.19-3-2.19-3Zm11.25,0,.52.71V32.39Zm-1.24-7.63-2.2-3-2.19,3,2.19,3Zm-11.26,0-2.19-3-2.19,3,2.19,3ZM58.47,33.1l2.19,3,2.19-3-2.19-3Zm11.25,0,2.19,3,2.2-3-2.2-3Zm1.57-11.44-2.19-3-2.19,3,2.19,3Zm-5.62,0-2.19-3-2.2,3,2.2,3ZM61.28,36.91l2.2,3,2.19-3-2.19-3Zm5.63,0,2.19,3,2.19-3-2.19-3Zm9-16.67-1.14-1.55-2.19,3,2.19,3,1.14-1.55ZM60,21.66l-2.19-3L56.13,21V22.3l1.72,2.33ZM56.13,37.55l1.72,2.34,2.19-3-2.19-3-1.72,2.33Zm16.41-.64,2.19,3,1.14-1.55V35.49l-1.14-1.55Zm3.33-19.78-.52.71.52.71Zm-7.39.71-2.19-3-2.19,3,2.19,3Zm-11.25,0-1.1-1.49v3Zm-1.1,24.38,1.1-1.49-1.1-1.49Zm8-1.49,2.19,3,2.19-3-2.19-3Zm11.25,0,.52.71V40ZM74.11,17.84l-2.2-3-2.19,3,2.19,3Zm-13.45-3-2.19,3,2.19,3,2.19-3ZM58.47,40.73l2.19,3,2.19-3-2.19-3Zm13.44,3,2.2-3-2.2-3-2.19,3ZM71.29,14l-2.19-3-2.19,3,2.19,3Zm-5.62,0-2.19-3-2.2,3,2.2,3ZM61.28,44.54l2.2,3,2.19-3-2.19-3Zm5.63,0,2.19,3,2.19-3-2.19-3Zm9-33.62V9.51l-.52.7Zm-1.14.14-2.19,3,2.19,3,1.14-1.55V12.61ZM60,14l-2.19-3-1.72,2.33v1.28L57.85,17ZM57.85,47.51l2.19-3-2.19-3L56.13,43.9v1.28Zm14.69-3,2.19,3L75.87,46V43.12l-1.14-1.55Zm2.81,3.82.52.7v-1.4Zm-18.73-39-.49-.66v3l1.1-1.49Zm0,39.79.61-.82-1.1-1.49v3ZM72.69,8.3l-.77-1.05L70.53,9.12l-.81,1.09,2.19,3,2.2-3ZM71,6.74H67.16l1,1.29,1,1.34.8-1.08Zm-5.62,0H61.53l1.4,1.9.54.73,1.19-1.61ZM60,8.12l-1.55,2.09,2.19,3,2.19-3-.52-.71L60.66,7.25Zm0,42.33.64.87,1.67-2.25.52-.71-2.19-3-2.19,3Zm1.51,1.38h3.89l-.76-1L63.47,49.2l-.54.74Zm5.63,0H71L69.9,50.28l-.8-1.08-1,1.34Zm5.53-1.56,1.42-1.91-2.2-3-2.19,3,.81,1.09,1.39,1.87ZM75.87,6.74H72.78l.51.68,1.44,1.95,1.14-1.55Zm-19.74,0V7l1.72,2.33,1.57-2.13.37-.5Zm0,45.09h3.66l-.37-.5L57.85,49.2l-1.72,2.33Zm19.74,0V50.75L74.73,49.2l-1.44,1.95-.51.68Z"/>
</svg>
